<svg width="12" height="20" viewBox="0 0 12 20" xmlns="http://www.w3.org/2000/svg">
<path d="M9.12482 19.0984L0.69982 10.6984C0.59982 10.5984 0.52882 10.4901 0.48682 10.3734C0.44482 10.2568 0.424154 10.1318 0.42482 9.99844C0.42482 9.8651 0.445487 9.7401 0.48682 9.62344C0.528153 9.50677 0.599153 9.39844 0.69982 9.29844L9.12482 0.873437C9.35815 0.640104 9.64982 0.523438 9.99982 0.523438C10.3498 0.523438 10.6498 0.648438 10.8998 0.898438C11.1498 1.14844 11.2748 1.4401 11.2748 1.77344C11.2748 2.10677 11.1498 2.39844 10.8998 2.64844L3.54982 9.99844L10.8998 17.3484C11.1332 17.5818 11.2498 17.8694 11.2498 18.2114C11.2498 18.5534 11.1248 18.8491 10.8748 19.0984C10.6248 19.3484 10.3332 19.4734 9.99982 19.4734C9.66649 19.4734 9.37482 19.3484 9.12482 19.0984Z"/>
</svg>
