<svg width="50" height="50" viewBox="0 0 256 256" fill="none" xmlns="http://www.w3.org/2000/svg">
<path d="M224 218H176C197.965 206.285 214.888 186.942 223.58 163.616C232.272 140.289 232.134 114.588 223.19 91.3563C214.247 68.1244 197.117 48.965 175.027 37.4878C152.937 26.0106 127.412 23.008 103.261 29.0456C79.1109 35.0832 58.002 49.7443 43.9117 70.2666C29.8215 90.7889 23.7226 115.756 26.7642 140.463C29.8058 165.17 41.7779 187.912 60.4248 204.404C79.0718 220.896 103.106 230 128 230H224C225.591 230 227.117 229.368 228.243 228.243C229.368 227.118 230 225.591 230 224C230 222.409 229.368 220.883 228.243 219.758C227.117 218.632 225.591 218 224 218ZM38 128C38 110.2 43.2784 92.7993 53.1677 77.9988C63.0571 63.1984 77.1132 51.6629 93.5585 44.851C110.004 38.0391 128.1 36.2568 145.558 39.7295C163.016 43.2021 179.053 51.7738 191.64 64.3605C204.226 76.9473 212.798 92.9837 216.271 110.442C219.743 127.9 217.961 145.996 211.149 162.442C204.337 178.887 192.802 192.943 178.001 202.832C163.201 212.722 145.8 218 128 218C104.139 217.974 81.2622 208.483 64.3896 191.611C47.5171 174.738 38.0265 151.862 38 128ZM128 102C132.351 102 136.605 100.71 140.223 98.2925C143.84 95.8751 146.66 92.4392 148.325 88.4192C149.99 84.3992 150.426 79.9757 149.577 75.7082C148.728 71.4406 146.633 67.5206 143.556 64.4438C140.48 61.367 136.56 59.2718 132.292 58.4229C128.024 57.574 123.601 58.0097 119.581 59.6748C115.561 61.3399 112.125 64.1597 109.708 67.7776C107.29 71.3955 106 75.649 106 80.0002C106 85.8349 108.318 91.4307 112.444 95.5565C116.569 99.6823 122.165 102 128 102ZM128 70.0002C129.978 70.0002 131.911 70.5866 133.556 71.6855C135.2 72.7843 136.482 74.3461 137.239 76.1733C137.996 78.0006 138.194 80.0112 137.808 81.9511C137.422 83.8909 136.47 85.6727 135.071 87.0712C133.673 88.4697 131.891 89.4222 129.951 89.808C128.011 90.1939 126 89.9958 124.173 89.2389C122.346 88.4821 120.784 87.2003 119.685 85.5559C118.586 83.9114 118 81.978 118 80.0002C118 77.348 119.054 74.8044 120.929 72.9291C122.804 71.0537 125.348 70.0002 128 70.0002ZM150 176C150 171.649 148.71 167.395 146.292 163.778C143.875 160.16 140.439 157.34 136.419 155.675C132.399 154.01 127.976 153.574 123.708 154.423C119.44 155.272 115.52 157.367 112.444 160.444C109.367 163.521 107.272 167.441 106.423 171.708C105.574 175.976 106.01 180.399 107.675 184.419C109.34 188.439 112.16 191.875 115.777 194.292C119.395 196.71 123.649 198 128 198C133.835 198 139.431 195.682 143.556 191.557C147.682 187.431 150 181.835 150 176ZM118 176C118 174.022 118.586 172.089 119.685 170.444C120.784 168.8 122.346 167.518 124.173 166.761C126 166.004 128.011 165.806 129.951 166.192C131.891 166.578 133.673 167.531 135.071 168.929C136.47 170.328 137.422 172.109 137.808 174.049C138.194 175.989 137.996 178 137.239 179.827C136.482 181.654 135.2 183.216 133.556 184.315C131.911 185.414 129.978 186 128 186C125.348 186 122.804 184.947 120.929 183.071C119.054 181.196 118 178.652 118 176ZM176 150C180.351 150 184.605 148.71 188.223 146.292C191.84 143.875 194.66 140.439 196.325 136.419C197.99 132.399 198.426 127.976 197.577 123.708C196.728 119.441 194.633 115.521 191.556 112.444C188.48 109.367 184.56 107.272 180.292 106.423C176.024 105.574 171.601 106.01 167.581 107.675C163.561 109.34 160.125 112.16 157.708 115.778C155.29 119.395 154 123.649 154 128C154 133.835 156.318 139.431 160.444 143.557C164.569 147.682 170.165 150 176 150ZM176 118C177.978 118 179.911 118.587 181.556 119.685C183.2 120.784 184.482 122.346 185.239 124.173C185.996 126.001 186.194 128.011 185.808 129.951C185.422 131.891 184.47 133.673 183.071 135.071C181.673 136.47 179.891 137.422 177.951 137.808C176.011 138.194 174 137.996 172.173 137.239C170.346 136.482 168.784 135.2 167.685 133.556C166.586 131.911 166 129.978 166 128C166 125.348 167.054 122.804 168.929 120.929C170.804 119.054 173.348 118 176 118ZM80 106C75.6488 106 71.3953 107.29 67.7775 109.708C64.1596 112.125 61.3398 115.561 59.6747 119.581C58.0095 123.601 57.5739 128.025 58.4227 132.292C59.2716 136.56 61.3669 140.48 64.4437 143.557C67.5204 146.633 71.4404 148.729 75.708 149.577C79.9756 150.426 84.3991 149.991 88.419 148.326C92.439 146.66 95.8749 143.841 98.2923 140.223C100.71 136.605 102 132.351 102 128C102 122.165 99.6822 116.57 95.5564 112.444C91.4306 108.318 85.8348 106 80 106ZM80 138C78.0222 138 76.0888 137.414 74.4443 136.315C72.7998 135.216 71.5181 133.654 70.7612 131.827C70.0043 130 69.8063 127.989 70.1922 126.049C70.578 124.109 71.5304 122.328 72.9289 120.929C74.3275 119.531 76.1093 118.578 78.0491 118.192C79.9889 117.806 81.9996 118.004 83.8268 118.761C85.6541 119.518 87.2159 120.8 88.3147 122.444C89.4135 124.089 90 126.022 90 128C90 130.652 88.9464 133.196 87.0711 135.071C85.1957 136.947 82.6522 138 80 138Z" fill="#B5BAF1"/>
</svg>
